<svg width="1337" height="141" viewBox="0 0 1337 141" fill="none" xmlns="http://www.w3.org/2000/svg">
<path d="M0.8 3H26.8L67.8 111.6C69 114.8 71.2 116.2 74.4 116.2C77.6 116.2 79.6 114.8 81 111.6L124 3H150.2L102.6 123C97.6 135.6 88.4 140.4 74.4 140.4C61.2 140.4 51 136.2 46 123L0.8 3ZM170.236 3H193.836V138H170.236V3ZM237.686 3H285.286C324.686 3 346.086 25 346.086 70.6C346.086 116 324.886 138 285.286 138H237.686C230.086 138 226.486 134.4 226.486 127V14C226.486 6.6 230.086 3 237.686 3ZM250.086 29V112C250.086 113.8 250.886 114.4 252.686 114.4H285.286C311.486 114.4 322.486 101.4 322.486 70.4C322.486 39.6 311.486 26.6 285.286 26.6H252.686C250.886 26.6 250.086 27.2 250.086 29ZM346.28 3H374.88L412.68 60.8L450.88 3H478.88L424.48 79.8V138H400.68V79.8L346.28 3ZM534.639 29.4L491.839 138H465.839L513.239 18C518.239 5.39999 527.439 0.599993 541.639 0.599993C555.639 0.599993 564.839 5.39999 569.639 18L615.239 138H589.039L548.039 29.4C546.839 26.2 544.639 24.8 541.439 24.8C538.239 24.8 536.039 26.2 534.639 29.4ZM741.595 29.2L701.195 138H675.995L717.795 25.6C722.995 10.2 731.595 0.599993 749.595 0.599993C769.595 0.599993 779.595 12.4 779.595 30V109.8C779.595 114.4 782.395 117.4 786.395 117.4C789.995 117.4 792.795 115.2 793.995 111.8L826.795 25.6C831.995 10.2 840.595 0.599993 858.595 0.599993C878.595 0.599993 888.595 12.4 888.595 30V138H864.795V31.2C864.795 26.4 861.995 23.4 857.995 23.4C854.595 23.4 851.795 25.8 850.595 29.2L817.795 115.4C812.595 130.8 803.795 140.4 785.795 140.4C765.995 140.4 755.995 128.6 755.995 110.8V31.2C755.995 26.4 752.995 23.4 748.995 23.4C745.395 23.4 742.995 25.8 741.595 29.2ZM977.413 29.4L934.613 138H908.613L956.013 18C961.013 5.39999 970.213 0.599993 984.413 0.599993C998.413 0.599993 1007.61 5.39999 1012.41 18L1058.01 138H1031.81L990.813 29.4C989.613 26.2 987.413 24.8 984.213 24.8C981.013 24.8 978.813 26.2 977.413 29.4ZM1077.65 3H1150.85C1181.25 3 1194.25 21.8 1194.25 43.4C1194.25 60.2 1186.25 78.2 1165.65 84L1197.05 138H1170.85L1140.05 85.8H1104.85C1102.65 85.8 1101.45 86.8 1101.45 89.2V138H1077.85V84.6C1077.85 69.4 1084.25 63.2 1099.05 63.2H1151.65C1165.05 63.2 1170.45 54 1170.45 44.4C1170.45 34.8 1164.65 26.6 1151.65 26.6H1077.65V3ZM1273.89 3H1329.49V26.6H1273.89C1247.89 26.6 1236.49 39.6 1236.49 70.6C1236.49 101.4 1247.69 114.4 1273.89 114.4H1296.29C1309.49 114.4 1315.09 106.4 1315.09 95.4C1315.09 84.6 1309.49 78.2 1298.49 78.2H1268.49V57.6H1300.89C1324.89 57.6 1336.69 72.4 1336.69 95.8C1336.69 119.4 1324.89 138 1294.69 138H1273.89C1234.49 138 1212.89 115.8 1212.89 70.6C1212.89 25.2 1234.69 3 1273.89 3Z" fill="black"/>
</svg>
