<svg width="662" height="379" viewBox="0 0 662 379" fill="none" xmlns="http://www.w3.org/2000/svg">
<path d="M0.8 3H26.8L67.8 111.6C69 114.8 71.2 116.2 74.4 116.2C77.6 116.2 79.6 114.8 81 111.6L124 3H150.2L102.6 123C97.6 135.6 88.4 140.4 74.4 140.4C61.2 140.4 51 136.2 46 123L0.8 3ZM170.236 3H193.836V138H170.236V3ZM237.686 3H285.286C324.686 3 346.086 25 346.086 70.6C346.086 116 324.886 138 285.286 138H237.686C230.086 138 226.486 134.4 226.486 127V14C226.486 6.6 230.086 3 237.686 3ZM250.086 29V112C250.086 113.8 250.886 114.4 252.686 114.4H285.286C311.486 114.4 322.486 101.4 322.486 70.4C322.486 39.6 311.486 26.6 285.286 26.6H252.686C250.886 26.6 250.086 27.2 250.086 29ZM346.28 3H374.88L412.68 60.8L450.88 3H478.88L424.48 79.8V138H400.68V79.8L346.28 3ZM534.639 29.4L491.839 138H465.839L513.239 18C518.239 5.39999 527.439 0.599993 541.639 0.599993C555.639 0.599993 564.839 5.39999 569.639 18L615.239 138H589.039L548.039 29.4C546.839 26.2 544.639 24.8 541.439 24.8C538.239 24.8 536.039 26.2 534.639 29.4ZM66.4 267.2L26 376H0.8L42.6 263.6C47.8 248.2 56.4 238.6 74.4 238.6C94.4 238.6 104.4 250.4 104.4 268V347.8C104.4 352.4 107.2 355.4 111.2 355.4C114.8 355.4 117.6 353.2 118.8 349.8L151.6 263.6C156.8 248.2 165.4 238.6 183.4 238.6C203.4 238.6 213.4 250.4 213.4 268V376H189.6V269.2C189.6 264.4 186.8 261.4 182.8 261.4C179.4 261.4 176.6 263.8 175.4 267.2L142.6 353.4C137.4 368.8 128.6 378.4 110.6 378.4C90.8 378.4 80.8 366.6 80.8 348.8V269.2C80.8 264.4 77.8 261.4 73.8 261.4C70.2 261.4 67.8 263.8 66.4 267.2ZM302.217 267.4L259.417 376H233.417L280.817 256C285.817 243.4 295.017 238.6 309.217 238.6C323.217 238.6 332.417 243.4 337.217 256L382.817 376H356.617L315.617 267.4C314.417 264.2 312.217 262.8 309.017 262.8C305.817 262.8 303.617 264.2 302.217 267.4ZM402.453 241H475.653C506.053 241 519.053 259.8 519.053 281.4C519.053 298.2 511.053 316.2 490.453 322L521.853 376H495.653L464.853 323.8H429.653C427.453 323.8 426.253 324.8 426.253 327.2V376H402.653V322.6C402.653 307.4 409.053 301.2 423.853 301.2H476.453C489.853 301.2 495.253 292 495.253 282.4C495.253 272.8 489.453 264.6 476.453 264.6H402.453V241ZM598.697 241H654.297V264.6H598.697C572.697 264.6 561.297 277.6 561.297 308.6C561.297 339.4 572.497 352.4 598.697 352.4H621.097C634.297 352.4 639.897 344.4 639.897 333.4C639.897 322.6 634.297 316.2 623.297 316.2H593.297V295.6H625.697C649.697 295.6 661.497 310.4 661.497 333.8C661.497 357.4 649.697 376 619.497 376H598.697C559.297 376 537.697 353.8 537.697 308.6C537.697 263.2 559.497 241 598.697 241Z" fill="#800000"/>
</svg>
